<svg width="102" height="31" viewBox="0 0 102 31" fill="none" xmlns="http://www.w3.org/2000/svg">
<path d="M29.0391 23V10.0859H31.1953V11.8672C31.4297 11.3359 31.8516 10.8359 32.4609 10.3672C33.0703 9.89844 33.8281 9.66406 34.7344 9.66406C36.25 9.66406 37.3281 10.5547 37.9688 12.3359C38.0625 12.1172 38.1953 11.8906 38.3672 11.6562C38.5391 11.4062 38.7812 11.1172 39.0938 10.7891C39.4062 10.4609 39.8203 10.1953 40.3359 9.99219C40.8672 9.77344 41.4375 9.66406 42.0469 9.66406C44.5938 9.66406 45.8672 11.3281 45.8672 14.6562V23H43.6641V14.7969C43.6641 13.7188 43.5156 12.9062 43.2188 12.3594C42.9219 11.7969 42.3672 11.5156 41.5547 11.5156C40.6953 11.5156 39.9766 11.8828 39.3984 12.6172C38.8203 13.3359 38.5312 14.2422 38.5312 15.3359V23H36.375V14.75C36.375 12.5938 35.6641 11.5156 34.2422 11.5156C33.3203 11.5156 32.5938 11.8594 32.0625 12.5469C31.5312 13.2344 31.2656 14.1328 31.2656 15.2422V23H29.0391ZM50.7188 16.5547C50.7188 18.1328 51.0703 19.3672 51.7734 20.2578C52.4766 21.1328 53.3359 21.5703 54.3516 21.5703C55.3516 21.5703 56.2031 21.1328 56.9062 20.2578C57.6094 19.3672 57.9609 18.1328 57.9609 16.5547C57.9609 14.9453 57.6094 13.7031 56.9062 12.8281C56.2031 11.9531 55.3516 11.5156 54.3516 11.5156C53.3516 11.5156 52.4922 11.9531 51.7734 12.8281C51.0703 13.6875 50.7188 14.9297 50.7188 16.5547ZM48.4688 16.5547C48.4688 14.6016 48.9766 12.9688 49.9922 11.6562C51.0078 10.3281 52.4609 9.66406 54.3516 9.66406C56.2109 9.66406 57.6484 10.3281 58.6641 11.6562C59.6953 12.9688 60.2109 14.6016 60.2109 16.5547C60.2109 17.3672 60.1016 18.1562 59.8828 18.9219C59.6797 19.6875 59.3594 20.4219 58.9219 21.125C58.5 21.8125 57.8906 22.3672 57.0938 22.7891C56.2969 23.2109 55.3828 23.4219 54.3516 23.4219C53.3203 23.4219 52.4062 23.2188 51.6094 22.8125C50.8281 22.3906 50.2109 21.8359 49.7578 21.1484C49.3203 20.4609 48.9922 19.7344 48.7734 18.9688C48.5703 18.1875 48.4688 17.3828 48.4688 16.5547ZM61.5938 11.9375V10.0859H63.7734V6.05469H65.9766V10.0859H69.2109V11.9375H65.9766V19.0859C65.9766 19.8203 66.1172 20.3438 66.3984 20.6562C66.6797 20.9688 67.125 21.125 67.7344 21.125H69.2344V23H67.4531C65 23 63.7734 21.7578 63.7734 19.2734V11.9375H61.5938ZM71.9062 7.53125V4.85938H74.5078V7.53125H71.9062ZM72.1406 23V10.0859H74.2969V23H72.1406ZM76.6641 10.0859H79.1016L81.5859 17.6562C81.7422 18.1406 81.9453 18.8203 82.1953 19.6953C82.4453 20.5703 82.5781 21.0469 82.5938 21.125H82.6406C82.75 20.7188 82.9297 20.1016 83.1797 19.2734C83.4453 18.4453 83.6172 17.9062 83.6953 17.6562L86.1562 10.0859H88.5703L83.9297 23H81.3281L76.6641 10.0859ZM89.4375 16.4609C89.4375 14.4297 89.9922 12.7891 91.1016 11.5391C92.2109 10.2891 93.6328 9.66406 95.3672 9.66406C97.1016 9.66406 98.4844 10.2812 99.5156 11.5156C100.562 12.75 101.086 14.3281 101.086 16.25C101.086 16.5 101.07 16.8438 101.039 17.2812H91.6641C91.6641 18.4688 92 19.4922 92.6719 20.3516C93.3594 21.1953 94.2969 21.6172 95.4844 21.6172C97.0781 21.6172 98.2422 20.9297 98.9766 19.5547L100.828 20.1406C100.422 21.0938 99.7578 21.8828 98.8359 22.5078C97.9297 23.1172 96.8047 23.4219 95.4609 23.4219C93.6641 23.4219 92.2109 22.7891 91.1016 21.5234C89.9922 20.2422 89.4375 18.5547 89.4375 16.4609ZM91.7109 15.6641H98.8594C98.8594 14.4922 98.5469 13.5 97.9219 12.6875C97.2969 11.875 96.4453 11.4688 95.3672 11.4688C94.2734 11.4688 93.3984 11.8906 92.7422 12.7344C92.0859 13.5625 91.7422 14.5391 91.7109 15.6641Z" fill="#141B4D"/>
<path d="M11 28V9H18.5172C20.5709 9 22.1648 9.54904 23.2989 10.6471C24.433 11.7298 25 13.1681 25 14.9621C25 16.8026 24.41 18.2641 23.2299 19.3468C22.0651 20.4139 20.5249 20.9475 18.6092 20.9475L15 21V28H11ZM15 17.63H18.0805C19.0153 17.63 19.7433 17.398 20.2644 16.9341C20.7854 16.4701 21.046 15.8128 21.046 14.9621C21.046 13.199 20.0651 12.3175 18.1034 12.3175H15V17.63Z" fill="#141B4D"/>
<path d="M0 16.9032V6H4.02733V16.9247C4.02733 19.6057 5.18489 20.9462 7.5 20.9462C9.81511 20.9462 10.9727 19.6057 10.9727 16.9247V6H15V16.9032C15 19.1971 14.373 20.9534 13.119 22.172C11.881 23.3907 10.008 24 7.5 24C5.1045 24 3.25563 23.4194 1.95338 22.2581C0.651125 21.0824 0 19.2975 0 16.9032Z" fill="#BECDA8"/>
<path d="M13 0L18 6H8L13 0Z" fill="#BECDA8"/>
</svg>
